<svg width="11" height="10" viewBox="0 0 11 10" fill="none" xmlns="http://www.w3.org/2000/svg">
<path d="M3.082 0.623536L3.08566 0.614503C3.10474 0.567416 3.118 0.514115 3.118 0.456C3.118 0.365297 3.09511 0.25156 3.00578 0.162223C2.91644 0.0728866 2.8027 0.05 2.712 0.05C2.6213 0.05 2.50756 0.0728867 2.41822 0.162223C2.32889 0.25156 2.306 0.365296 2.306 0.456C2.306 0.514115 2.31926 0.567416 2.33834 0.614503L2.342 0.623536V0.633282V7.572C2.342 7.71679 2.3156 7.86352 2.26117 8.01352L2.25777 8.0242C2.2182 8.14857 2.14641 8.24888 2.03619 8.33025L2.03051 8.33466C1.94508 8.40111 1.80642 8.45 1.584 8.45C1.3652 8.45 1.21978 8.40265 1.12367 8.33319L1.122 8.33199L1.12202 8.33195C1.01955 8.25128 0.945039 8.14923 0.897106 8.02043L0.896196 8.01798L0.896261 8.01796C0.849002 7.86739 0.826 7.719 0.826 7.572V0.633282V0.623536L0.829661 0.614503C0.848743 0.567416 0.862 0.514115 0.862 0.456C0.862 0.365297 0.839113 0.25156 0.749777 0.162223C0.66044 0.0728866 0.546704 0.05 0.456 0.05C0.365296 0.05 0.25156 0.0728867 0.162223 0.162223C0.0728866 0.25156 0.05 0.365297 0.05 0.456C0.05 0.514115 0.0632575 0.567416 0.0823395 0.614503L0.086 0.623536V0.633282V7.572C0.086 7.82298 0.126074 8.0694 0.206178 8.31008L0.210664 8.32175M3.082 0.623536L0.210664 8.32175M3.082 0.623536V0.633282V7.572C3.082 7.82648 3.03643 8.07584 2.94644 8.31883M3.082 0.623536L2.94644 8.31883M0.210664 8.32175C0.307058 8.57237 0.462853 8.78178 0.675138 8.94582L0.680096 8.94965L0.685231 8.95323L0.656681 8.99427L0.685234 8.95323C0.925554 9.12041 1.23391 9.19 1.584 9.19C1.92672 9.19 2.22929 9.12015 2.46294 8.95027C2.46297 8.95025 2.46301 8.95022 2.46305 8.95019L2.4646 8.94905C2.68575 8.78558 2.84774 8.57544 2.9453 8.32185C2.94531 8.32181 2.94532 8.32178 2.94534 8.32175L2.94644 8.31883M0.210664 8.32175L2.94644 8.31883M4.30303 8.7425L4.30598 8.73269L5.14803 5.93463L5.19591 5.77553L5.24379 5.93463L6.09579 8.76575L6.09791 8.7728V8.78016V8.784C6.09791 8.8747 6.12079 8.98844 6.21013 9.07778C6.29947 9.16711 6.4132 9.19 6.50391 9.19C6.59461 9.19 6.70835 9.16711 6.79768 9.07778C6.88702 8.98844 6.90991 8.8747 6.90991 8.784C6.90991 8.71978 6.89586 8.64935 6.85628 8.58338C6.84318 8.56154 6.82832 8.54193 6.81219 8.52438L6.80443 8.51593L6.80112 8.50495L5.59338 4.49064L5.58903 4.47619L5.5934 4.46176L6.7258 0.717909L6.7282 0.709986L6.73302 0.703259C6.78214 0.63471 6.81391 0.55159 6.81391 0.456C6.81391 0.365297 6.79102 0.25156 6.70168 0.162223C6.61235 0.0728867 6.49861 0.05 6.40791 0.05C6.3172 0.05 6.20347 0.0728867 6.11413 0.162224C6.02479 0.251561 6.00191 0.365297 6.00191 0.456C6.00191 0.468591 6.00213 0.484481 6.00343 0.502039L6.00412 0.511316L6.00143 0.520218L5.24539 3.0177L5.19726 3.17668L5.14963 3.01755L4.40078 0.515711L4.39764 0.505241L4.39917 0.494418C4.40089 0.482111 4.40191 0.46925 4.40191 0.456C4.40191 0.365297 4.37902 0.25156 4.28968 0.162223M4.30303 8.7425L4.28968 0.162223M4.30303 8.7425L4.30417 8.75268M4.30303 8.7425L4.30417 8.75268M4.28968 0.162223C4.20035 0.0728867 4.08661 0.05 3.99591 0.05C3.9052 0.05 3.79147 0.0728867 3.70213 0.162223C3.61279 0.25156 3.58991 0.365296 3.58991 0.456C3.58991 0.551412 3.62155 0.634398 3.67052 0.70287M4.28968 0.162223L3.67052 0.70287M4.30417 8.75268C4.30529 8.76271 4.30591 8.77315 4.30591 8.784C4.30591 8.8747 4.28302 8.98844 4.19368 9.07778C4.10435 9.16711 3.99061 9.19 3.89991 9.19C3.8092 9.19 3.69547 9.16711 3.60613 9.07778C3.51679 8.98844 3.49391 8.8747 3.49391 8.784C3.49391 8.70995 3.51221 8.60488 3.5806 8.52408L3.58732 8.51614L3.59032 8.50618L4.79857 4.49019L4.80289 4.47582L4.79859 4.46145L3.67775 0.717615L3.67536 0.709641M4.30417 8.75268L3.67536 0.709641M3.67536 0.709641L3.67052 0.70287M3.67536 0.709641L3.67052 0.70287M8.06191 8.28V8.33H8.11191H8.80791C9.04043 8.33 9.18215 8.28021 9.26642 8.21466L9.27161 8.21074C9.27169 8.21067 9.27178 8.21061 9.27186 8.21055C9.38511 8.12703 9.45618 8.0286 9.49474 7.91294L9.49696 7.90656C9.497 7.90645 9.49704 7.90633 9.49708 7.90622C9.55122 7.75722 9.57791 7.60622 9.57791 7.452V1.788C9.57791 1.63369 9.5512 1.4879 9.49829 1.349L9.49579 1.34246L9.49368 1.3358C9.45405 1.21125 9.38216 1.11073 9.27161 1.02926L9.26642 1.02534C9.26633 1.02527 9.26624 1.0252 9.26615 1.02513C9.18185 0.959689 9.04018 0.91 8.80791 0.91H8.11191H8.06191V0.96V8.28ZM9.71094 0.42171L9.71092 0.421739L9.71246 0.422824C9.93463 0.579036 10.0933 0.786879 10.1825 1.04149L10.1825 1.0415L10.183 1.0428C10.2733 1.27925 10.3179 1.52826 10.3179 1.788V7.452C10.3179 7.70547 10.2727 7.95386 10.1834 8.19593L10.1831 8.19677C10.0937 8.45307 9.93453 8.66494 9.7125 8.82904L9.71095 8.83018C9.71091 8.83021 9.71087 8.83024 9.71083 8.83027C9.47539 9.00144 9.16336 9.07 8.80791 9.07H7.32191V0.17H8.80791C9.1631 0.17 9.47538 0.242436 9.71094 0.42171Z" fill="url(#paint0_linear_2_3)" stroke="#FA00FF" stroke-width="0.1"/>
<defs>
<linearGradient id="paint0_linear_2_3" x1="8.88295" y1="0" x2="8.88295" y2="9.24" gradientUnits="userSpaceOnUse">
<stop stop-color="#9F008F"/>
<stop offset="1"/>
</linearGradient>
</defs>
</svg>
