<svg width="260" height="232" viewBox="0 0 260 232" fill="none" xmlns="http://www.w3.org/2000/svg">
<path d="M62.551 225.427C68.2841 221.189 72.4972 215.727 75.0316 209.138L75.0648 209.05C77.3718 202.821 78.5424 196.42 78.5424 189.886V15.8811C79.0684 14.5831 79.4452 13.0857 79.4452 11.4353C79.4452 8.9716 78.8241 5.74202 76.2636 3.18152C73.7031 0.621017 70.4736 0 68.0099 0C65.5462 0 62.3166 0.621017 59.7561 3.18152C57.1956 5.74202 56.5746 8.9716 56.5746 11.4353C56.5746 13.0857 56.9514 14.583 57.4774 15.8811V189.886C57.4774 193.368 56.8416 196.911 55.517 200.554L55.4241 200.846C54.5124 203.711 52.8692 206.012 50.3047 207.902L50.1502 208.022C48.3005 209.46 45.1301 210.65 39.7226 210.65C34.4084 210.65 31.0462 209.5 28.913 207.958C26.5289 206.081 24.796 203.714 23.6722 200.694C22.5234 197.034 21.9678 193.439 21.9678 189.886V15.8811C22.4938 14.583 22.8706 13.0857 22.8706 11.4353C22.8706 8.9716 22.2496 5.74202 19.6891 3.18152C17.1286 0.621017 13.899 0 11.4353 0C8.97159 0 5.742 0.621017 3.18152 3.18152C0.621002 5.74202 0 8.9716 0 11.4353C0 13.0857 0.37677 14.583 0.902771 15.8811V189.886C0.902771 196.325 1.93283 202.648 3.98984 208.819L4.11261 209.138C6.61212 215.636 10.6585 221.076 16.164 225.33L16.3131 225.445L16.4678 225.553C22.7772 229.942 30.7927 231.715 39.7226 231.715C48.4722 231.715 56.3553 229.933 62.5043 225.461L62.551 225.427Z" fill="url(#paint0_linear_108_6)"/>
<path d="M109.235 220.28C109.235 219.96 109.217 219.652 109.183 219.354L130.3 149.186L151.666 220.184V220.28C151.666 222.743 152.287 225.973 154.847 228.534C157.408 231.094 160.637 231.715 163.101 231.715C165.565 231.715 168.794 231.094 171.355 228.534C173.915 225.973 174.536 222.743 174.536 220.28C174.536 218.489 174.144 216.489 173.013 214.604C172.639 213.981 172.215 213.421 171.755 212.921L141.468 112.252L169.866 18.3663C171.232 16.4604 172.129 14.1248 172.129 11.4353C172.129 8.9716 171.508 5.74202 168.947 3.18152C166.387 0.621017 163.157 0 160.694 0C158.23 0 155 0.621017 152.44 3.18153C149.879 5.74203 149.258 8.97162 149.258 11.4353C149.258 11.7659 149.264 12.1986 149.3 12.6824L130.34 75.3128L111.561 12.5731C111.612 12.2123 111.642 11.8313 111.642 11.4353C111.642 8.9716 111.021 5.74202 108.461 3.18152C105.9 0.621017 102.671 0 100.207 0C97.7432 0 94.5136 0.621017 91.9531 3.18152C89.3926 5.74202 88.7716 8.9716 88.7716 11.4353C88.7716 14.1198 89.6655 16.4516 91.0271 18.3555L119.135 112.241L88.8351 212.952C86.8544 215.292 86.3642 218.265 86.3642 220.28C86.3642 222.743 86.9852 225.973 89.5457 228.534C92.1062 231.094 95.3358 231.715 97.7995 231.715C100.263 231.715 103.493 231.094 106.053 228.534C108.614 225.973 109.235 222.743 109.235 220.28Z" fill="url(#paint1_linear_108_6)"/>
<path fill-rule="evenodd" clip-rule="evenodd" d="M244.284 9.57762C238.077 4.85333 229.936 3.00928 220.879 3.00928H182.36V228.706H220.879C229.932 228.706 238.06 226.963 244.263 222.452L244.309 222.418C250.071 218.159 254.222 212.642 256.55 205.966C258.839 199.761 260 193.385 260 186.877V44.8384C260 38.1782 258.855 31.7817 256.534 25.7034C254.209 19.0667 250.066 13.6426 244.284 9.57762ZM203.425 207.641V24.0743H220.879C226.551 24.0743 229.793 25.2912 231.608 26.7025L231.764 26.8207C234.328 28.7103 235.97 31.0132 236.882 33.8786L236.946 34.0791L237.02 34.2757C238.292 37.6132 238.935 41.1175 238.935 44.8384V186.877C238.935 190.598 238.291 194.243 236.981 197.847L236.914 198.039C236.033 200.68 234.414 202.942 231.764 204.894L231.608 205.012C229.793 206.424 226.551 207.641 220.879 207.641H203.425Z" fill="url(#paint2_linear_108_6)"/>
<defs>
<linearGradient id="paint0_linear_108_6" x1="0" y1="0" x2="265.5" y2="232" gradientUnits="userSpaceOnUse">
<stop stop-color="#E506E1"/>
<stop offset="0.707162" stop-color="#D9AC68"/>
</linearGradient>
<linearGradient id="paint1_linear_108_6" x1="0" y1="0" x2="265.5" y2="232" gradientUnits="userSpaceOnUse">
<stop stop-color="#E506E1"/>
<stop offset="0.707162" stop-color="#D9AC68"/>
</linearGradient>
<linearGradient id="paint2_linear_108_6" x1="0" y1="0" x2="265.5" y2="232" gradientUnits="userSpaceOnUse">
<stop stop-color="#E506E1"/>
<stop offset="0.707162" stop-color="#D9AC68"/>
</linearGradient>
</defs>
</svg>
