<svg width="18" height="18" viewBox="0 0 18 18" fill="none" xmlns="http://www.w3.org/2000/svg">
<path fill-rule="evenodd" clip-rule="evenodd" d="M2 0C0.895431 0 0 0.89543 0 2V16C0 17.1046 0.89543 18 2 18H16C17.1046 18 18 17.1046 18 16V2C18 0.895431 17.1046 0 16 0H2ZM9.80667 12.5867C7.92 11.6267 6.37333 10.08 5.41333 8.19333L6.88 6.72667C7.06667 6.54 7.12 6.28 7.04667 6.04667C6.8 5.3 6.66667 4.5 6.66667 3.66667C6.66667 3.48986 6.59643 3.32029 6.4714 3.19526C6.34638 3.07024 6.17681 3 6 3H3.66667C3.48986 3 3.32029 3.07024 3.19526 3.19526C3.07024 3.32029 3 3.48986 3 3.66667C3 6.67245 4.19404 9.55513 6.31946 11.6805C8.44487 13.806 11.3275 15 14.3333 15C14.5101 15 14.6797 14.9298 14.8047 14.8047C14.9298 14.6797 15 14.5101 15 14.3333V12C15 11.8232 14.9298 11.6536 14.8047 11.5286C14.6797 11.4036 14.5101 11.3333 14.3333 11.3333C13.5 11.3333 12.7 11.2 11.9533 10.9533C11.72 10.88 11.46 10.9333 11.2733 11.12L9.80667 12.5867Z" fill="#616268"/>
</svg>
