<svg width="11" height="10" viewBox="0 0 11 10" fill="none" xmlns="http://www.w3.org/2000/svg">
<path fill-rule="evenodd" clip-rule="evenodd" d="M2.49432 8.98925C2.72294 8.82027 2.89094 8.60247 2.992 8.33969L2.99332 8.33619C3.08532 8.0878 3.132 7.83257 3.132 7.572V0.633282C3.15298 0.581522 3.168 0.521813 3.168 0.456C3.168 0.357757 3.14324 0.228972 3.04113 0.126868C2.93903 0.0247641 2.81024 0 2.712 0C2.61376 0 2.48497 0.0247641 2.38287 0.126868C2.28076 0.228972 2.256 0.357756 2.256 0.456C2.256 0.521813 2.27102 0.581522 2.292 0.633282V7.572C2.292 7.71085 2.26665 7.85213 2.21383 7.99739L2.21012 8.00904C2.17377 8.1233 2.10824 8.21505 2.00598 8.2904L1.99982 8.29519C1.92606 8.35256 1.79963 8.4 1.584 8.4C1.37209 8.4 1.23802 8.35413 1.15295 8.29267C1.05788 8.21782 0.988779 8.1234 0.943966 8.00299C0.898155 7.85703 0.876 7.71368 0.876 7.572V0.633282C0.896976 0.581522 0.912 0.521813 0.912 0.456C0.912 0.357757 0.887236 0.228972 0.785132 0.126868C0.683028 0.0247641 0.554244 0 0.456 0C0.357757 0 0.228972 0.0247641 0.126868 0.126868C0.024764 0.228972 0 0.357757 0 0.456C0 0.521813 0.0150242 0.581522 0.036 0.633282V7.572C0.036 7.82878 0.0770748 8.08089 0.159101 8.32697L0.163996 8.33969C0.263669 8.59884 0.425024 8.81574 0.644566 8.98539L0.650512 8.98998L0.656681 8.99427C0.908276 9.1693 1.22791 9.24 1.584 9.24C1.9329 9.24 2.24725 9.16896 2.49246 8.99063L2.49432 8.98925Z" fill="url(#paint0_linear_4_25)"/>
<path fill-rule="evenodd" clip-rule="evenodd" d="M4.35591 8.784C4.35591 8.77127 4.35519 8.75896 4.35386 8.7471L5.19591 5.94904L6.04791 8.78016V8.784C6.04791 8.88224 6.07267 9.01103 6.17477 9.11313C6.27688 9.21524 6.40566 9.24 6.50391 9.24C6.60215 9.24 6.73094 9.21524 6.83304 9.11313C6.93514 9.01103 6.95991 8.88224 6.95991 8.784C6.95991 8.71257 6.94427 8.63285 6.89915 8.55765C6.88426 8.53282 6.86735 8.51051 6.849 8.49054L5.64126 4.47623L6.77366 0.732385C6.82813 0.656384 6.86391 0.563249 6.86391 0.456C6.86391 0.357756 6.83914 0.228972 6.73704 0.126868C6.63493 0.0247641 6.50615 0 6.40791 0C6.30966 0 6.18088 0.0247641 6.07877 0.126868C5.97667 0.228973 5.95191 0.357757 5.95191 0.456C5.95191 0.469183 5.95214 0.486439 5.95357 0.505732L5.19753 3.00321L4.44868 0.501374C4.4507 0.486986 4.45191 0.471792 4.45191 0.456C4.45191 0.357757 4.42714 0.228972 4.32504 0.126868C4.22293 0.0247641 4.09415 0 3.99591 0C3.89766 0 3.76888 0.0247641 3.66677 0.126868C3.56467 0.228972 3.53991 0.357757 3.53991 0.456C3.53991 0.563047 3.57555 0.656034 3.62985 0.731955L4.75069 4.47579L3.54244 8.49178C3.46346 8.58509 3.44391 8.70367 3.44391 8.784C3.44391 8.88224 3.46867 9.01103 3.57077 9.11313C3.67288 9.21524 3.80166 9.24 3.89991 9.24C3.99815 9.24 4.12694 9.21524 4.22904 9.11313C4.33114 9.01103 4.35591 8.88224 4.35591 8.784Z" fill="url(#paint1_linear_4_25)"/>
<path fill-rule="evenodd" clip-rule="evenodd" d="M8.80791 0.12C9.16905 0.12 9.49369 0.193534 9.74122 0.381922C9.97176 0.544021 10.137 0.760313 10.2297 1.02496C10.3223 1.26734 10.3679 1.52241 10.3679 1.788V7.452C10.3679 7.71154 10.3216 7.96578 10.2303 8.21323C10.1375 8.47942 9.97199 8.69942 9.74222 8.86925L9.74036 8.87062C9.49301 9.05051 9.16891 9.12 8.80791 9.12H7.27191V0.12H8.80791ZM8.11191 0.96V8.28H8.80791C9.03407 8.28 9.16336 8.23148 9.23572 8.17519L9.24195 8.17048C9.34761 8.09263 9.4122 8.00244 9.4473 7.89713L9.44997 7.88948C9.50224 7.74574 9.52791 7.60041 9.52791 7.452V1.788C9.52791 1.63962 9.50226 1.49988 9.45156 1.3668L9.44857 1.35896L9.44603 1.35096C9.40967 1.2367 9.34421 1.14487 9.24195 1.06952L9.23572 1.06481C9.16336 1.00853 9.03407 0.96 8.80791 0.96H8.11191Z" fill="url(#paint2_linear_4_25)"/>
<defs>
<linearGradient id="paint0_linear_4_25" x1="0" y1="0" x2="10" y2="9" gradientUnits="userSpaceOnUse">
<stop stop-color="#E600E5"/>
<stop offset="0.661458" stop-color="#BC8157"/>
</linearGradient>
<linearGradient id="paint1_linear_4_25" x1="0" y1="0" x2="10" y2="9" gradientUnits="userSpaceOnUse">
<stop stop-color="#E600E5"/>
<stop offset="0.661458" stop-color="#BC8157"/>
</linearGradient>
<linearGradient id="paint2_linear_4_25" x1="0" y1="0" x2="10" y2="9" gradientUnits="userSpaceOnUse">
<stop stop-color="#E600E5"/>
<stop offset="0.661458" stop-color="#BC8157"/>
</linearGradient>
</defs>
</svg>
