<?xml version="1.0" standalone="no"?>
<!DOCTYPE svg PUBLIC "-//W3C//DTD SVG 20010904//EN"
 "http://www.w3.org/TR/2001/REC-SVG-20010904/DTD/svg10.dtd">
<svg version="1.0" xmlns="http://www.w3.org/2000/svg"
 width="1152.000000pt" height="1152.000000pt" viewBox="0 0 1152.000000 1152.000000"
 preserveAspectRatio="xMidYMid meet">
<metadata>
Created by potrace 1.14, written by Peter Selinger 2001-2017
</metadata>
<g transform="translate(0.000000,1152.000000) scale(0.100000,-0.100000)"
fill="#000000" stroke="none">
<path d="M210 8953 c-61 -20 -150 -78 -150 -99 0 -3 -7 -12 -15 -20 -37 -38
-56 -185 -33 -255 5 -15 11 -1033 13 -2330 2 -1267 5 -2315 7 -2329 3 -14 8
-38 11 -55 4 -16 9 -43 12 -60 31 -189 125 -371 261 -508 69 -69 205 -167 216
-155 2 1 16 -5 31 -15 36 -23 200 -65 291 -73 300 -30 572 27 745 154 164 120
300 318 346 502 2 8 9 31 14 50 6 19 15 60 21 90 5 30 12 69 16 85 4 17 8
1063 9 2325 1 1688 5 2306 13 2336 40 139 -42 303 -174 348 -66 22 -187 16
-246 -13 -118 -57 -179 -202 -144 -340 9 -35 12 -619 10 -2316 l-1 -2270 -22
-79 c-31 -116 -65 -183 -118 -234 -83 -79 -166 -106 -320 -105 -250 2 -369
104 -429 368 -9 37 -14 4606 -5 4620 26 45 16 178 -20 241 -30 55 -109 124
-140 124 -10 0 -20 4 -23 8 -6 9 -150 13 -176 5z"/>
<path d="M2460 8949 c-161 -46 -240 -245 -163 -409 26 -56 35 -80 79 -230 14
-47 35 -114 46 -150 11 -36 23 -78 28 -95 10 -37 218 -731 229 -765 5 -14 19
-61 31 -105 12 -44 25 -87 28 -95 3 -8 6 -19 8 -25 2 -5 10 -32 18 -60 18 -62
67 -227 96 -320 12 -38 28 -94 36 -124 8 -29 17 -57 20 -62 3 -5 7 -17 9 -26
6 -24 25 -92 74 -255 40 -132 41 -138 27 -180 -16 -47 -137 -447 -140 -463 -2
-5 -13 -44 -26 -85 -13 -41 -25 -81 -26 -87 -1 -7 -12 -42 -23 -77 -12 -36
-23 -73 -24 -83 -2 -10 -7 -25 -11 -33 -5 -13 -43 -136 -50 -165 -3 -12 -6
-22 -47 -155 -18 -58 -34 -109 -35 -115 -1 -5 -16 -57 -34 -115 -42 -138 -51
-169 -51 -175 0 -2 -7 -24 -15 -47 -9 -24 -17 -51 -19 -61 -2 -10 -18 -62 -34
-115 -62 -199 -203 -668 -212 -707 -6 -22 -16 -47 -24 -55 -45 -51 -64 -188
-37 -270 40 -122 153 -199 285 -193 166 6 265 101 286 273 11 90 6 71 76 300
53 172 81 264 90 300 2 8 8 27 14 43 6 15 8 27 5 27 -2 0 1 10 7 22 11 20 33
91 44 143 3 11 9 31 14 45 5 14 17 52 26 85 10 33 20 67 23 75 3 8 6 20 8 25
1 6 19 64 39 130 20 66 38 127 40 135 25 88 58 199 65 215 5 11 20 61 34 110
14 50 31 108 39 130 15 42 18 39 33 -27 6 -29 9 -39 17 -58 3 -8 18 -55 32
-105 15 -49 31 -103 36 -120 5 -16 9 -34 10 -40 1 -5 6 -21 11 -35 10 -25 43
-129 58 -185 4 -16 38 -129 75 -250 37 -121 73 -240 80 -265 7 -25 34 -115 60
-200 26 -85 48 -159 49 -165 12 -47 20 -72 28 -81 5 -7 8 -16 7 -20 -1 -5 1
-16 4 -24 3 -8 12 -35 18 -60 16 -56 13 -47 28 -100 7 -24 14 -58 15 -75 1
-16 5 -36 9 -42 5 -7 6 -13 2 -13 -13 0 38 -84 70 -114 36 -35 94 -67 135 -73
149 -23 275 30 332 141 25 49 31 76 31 151 0 59 -9 87 -63 185 -10 19 -28 69
-40 110 -12 41 -28 92 -36 113 -7 20 -11 37 -8 37 4 0 1 7 -6 15 -7 8 -10 15
-7 15 3 0 -3 26 -14 58 -11 31 -20 59 -21 62 0 3 -2 10 -4 15 -1 6 -12 44 -24
85 -12 41 -25 86 -30 100 -5 14 -20 63 -34 110 -14 47 -39 132 -57 190 -17 58
-32 110 -33 115 -1 6 -15 51 -30 100 -41 133 -71 231 -96 315 -12 41 -31 102
-41 135 -55 177 -104 341 -113 380 -4 17 -11 39 -16 50 -4 11 -22 70 -40 130
-17 61 -36 121 -41 135 -5 14 -11 34 -14 45 -2 11 -14 52 -25 90 -52 170 -51
154 -19 257 16 51 31 102 33 113 3 11 16 54 29 95 14 41 33 102 43 135 20 70
17 58 33 115 7 25 23 79 36 120 22 70 42 134 117 385 16 55 32 107 35 115 3 8
7 20 8 26 2 6 15 51 30 100 15 49 28 94 29 99 2 6 13 44 26 85 14 41 25 77 25
80 4 18 27 98 32 110 3 8 7 20 9 25 1 6 19 64 39 130 21 66 50 163 65 215 81
273 105 347 122 373 11 15 16 27 12 27 -3 0 -2 6 4 13 40 49 27 225 -20 282
-80 97 -125 119 -243 120 -93 0 -138 -13 -194 -57 -59 -45 -95 -125 -105 -233
-6 -60 -15 -105 -24 -119 -3 -6 -7 -15 -8 -21 -2 -13 -34 -117 -124 -415 -40
-129 -80 -262 -89 -295 -10 -33 -20 -67 -24 -75 -3 -8 -24 -78 -47 -155 -23
-77 -54 -183 -70 -235 -16 -52 -43 -142 -61 -200 l-31 -104 -13 39 c-38 117
-65 210 -65 225 0 9 -4 20 -9 26 -4 5 -16 38 -25 74 -9 36 -21 76 -27 90 -5
14 -11 34 -14 45 -2 11 -8 34 -14 50 -16 50 -63 209 -66 225 -2 8 -4 16 -5 18
-2 1 -4 7 -5 12 -1 6 -3 11 -5 13 -1 1 -3 9 -5 17 -2 8 -18 62 -35 120 -18 58
-33 110 -35 115 -1 6 -5 17 -8 25 -6 17 -77 256 -83 280 -2 8 -16 58 -32 110
-16 52 -32 124 -34 160 -12 162 -115 261 -277 266 -42 2 -92 -2 -111 -7z"/>
<path d="M4654 8875 c-2 -5 -2 -1301 -1 -2880 l2 -2870 550 0 c638 1 671 3
821 54 155 53 267 131 374 261 45 55 50 63 101 156 55 99 107 281 126 439 10
77 10 3837 1 3930 -23 226 -111 464 -218 590 -111 130 -288 248 -425 284 -95
24 -114 28 -190 37 -97 12 -1137 11 -1141 -1z m1096 -538 c68 -10 118 -30 167
-66 55 -42 114 -124 131 -184 7 -23 20 -67 29 -97 15 -50 16 -229 18 -1955 0
-1045 -3 -1922 -7 -1950 -5 -27 -10 -59 -12 -70 -21 -131 -90 -241 -191 -300
-72 -43 -140 -51 -426 -53 l-265 -1 1 2342 c1 1288 3 2342 4 2342 76 2 527 -4
551 -8z"/>
<path d="M7840 7409 c-45 -8 -82 -16 -83 -16 -1 -1 -22 -6 -47 -12 -25 -7 -49
-13 -55 -15 -5 -2 -14 -5 -20 -6 -27 -7 -146 -76 -193 -112 -103 -77 -206
-202 -265 -322 -35 -71 -79 -200 -84 -246 -1 -14 -5 -36 -9 -50 -9 -31 -10
-39 -19 -130 -10 -92 -13 -2435 -3 -2505 24 -181 24 -182 48 -272 23 -84 114
-283 130 -283 6 0 10 -6 10 -13 0 -7 14 -29 30 -48 141 -158 234 -224 398
-278 125 -41 210 -54 372 -54 181 -1 327 29 460 95 47 23 90 46 96 52 7 6 39
34 72 61 108 91 200 226 256 374 30 79 63 200 71 256 7 57 13 84 28 136 25 83
13 192 -30 258 -95 149 -336 171 -461 43 -57 -60 -76 -114 -73 -212 5 -169 4
-186 -18 -250 -31 -90 -86 -181 -126 -209 -60 -41 -150 -62 -265 -63 -108 -1
-135 2 -198 23 -114 37 -211 154 -237 284 -5 22 -10 47 -11 55 -14 63 -17 176
-18 705 -1 330 0 605 2 612 3 8 183 11 709 11 495 0 707 3 712 11 8 12 5 1182
-2 1221 -3 14 -8 43 -11 65 -17 116 -55 240 -109 355 -108 229 -334 411 -579
466 -10 2 -26 6 -36 8 -103 23 -337 26 -442 5z m295 -532 c71 -10 112 -21 145
-42 107 -67 170 -184 196 -360 4 -27 8 -185 8 -350 l1 -300 -445 0 -445 0 1
280 c1 386 13 475 79 590 45 79 142 157 208 169 12 3 22 5 22 6 0 1 11 4 24 6
14 2 26 5 27 7 4 3 145 -1 179 -6z"/>
<path d="M9417 7424 c-1 -1 -18 -5 -38 -8 -40 -6 -69 -16 -84 -28 -5 -5 -23
-18 -38 -29 -34 -25 -69 -80 -86 -131 -14 -42 -18 -138 -7 -156 4 -7 5 -12 2
-12 -3 0 4 -21 15 -47 12 -27 30 -88 41 -138 11 -49 28 -128 39 -175 11 -47
21 -94 23 -105 3 -18 16 -83 32 -155 3 -14 7 -36 10 -50 3 -14 7 -33 10 -42 3
-9 7 -27 9 -40 3 -13 7 -34 10 -48 3 -14 7 -34 9 -45 2 -11 18 -83 36 -160 17
-77 32 -149 34 -160 2 -11 6 -29 9 -40 4 -11 8 -36 11 -55 2 -19 7 -42 10 -50
3 -8 7 -26 10 -40 3 -14 14 -70 26 -125 12 -55 26 -120 31 -145 5 -25 11 -54
14 -65 6 -29 53 -246 76 -350 11 -49 22 -103 25 -120 3 -16 14 -68 25 -114 11
-47 22 -101 25 -120 3 -20 8 -39 10 -42 2 -3 6 -21 9 -40 3 -19 10 -51 16 -72
6 -21 12 -51 14 -67 2 -16 6 -33 8 -37 3 -4 8 -26 11 -48 4 -22 11 -56 16 -75
5 -19 11 -48 14 -65 5 -30 12 -62 21 -100 2 -11 16 -74 30 -140 14 -66 28
-128 31 -138 3 -10 7 -31 9 -47 2 -16 8 -46 14 -67 6 -21 12 -50 15 -66 3 -15
7 -35 10 -45 5 -16 9 -36 21 -99 6 -29 16 -78 22 -103 2 -8 4 -35 3 -60 -1
-91 32 -182 87 -237 26 -27 89 -61 120 -66 12 -2 25 -5 28 -8 5 -6 99 -2 138
5 13 2 42 13 63 24 100 53 147 139 150 277 0 50 2 90 3 90 1 0 4 11 6 25 3 14
11 54 20 90 8 36 17 74 19 85 5 29 45 226 51 250 13 56 37 163 41 185 3 14 14
63 24 110 10 47 21 96 24 110 2 14 10 48 16 75 6 28 13 59 16 70 4 23 15 73
29 138 3 12 12 58 20 102 9 44 19 87 22 95 6 15 7 19 17 75 8 43 14 70 16 70
1 0 3 11 5 25 2 14 11 57 20 95 9 39 18 85 21 104 3 19 9 44 14 55 4 12 8 24
8 29 1 4 4 27 8 52 3 25 6 48 6 52 0 5 4 14 10 21 6 7 8 15 5 18 -3 3 0 26 8
50 7 24 11 44 8 44 -3 0 0 6 6 13 6 8 9 16 6 18 -2 3 2 28 9 57 8 29 12 52 10
52 -2 0 1 12 7 26 5 15 12 42 15 62 7 44 10 57 24 112 6 25 12 54 14 65 11 58
18 93 26 125 5 19 12 47 15 63 3 15 7 38 10 52 3 14 7 36 9 50 3 14 7 33 10
43 6 19 16 67 21 99 2 11 6 30 9 41 4 11 9 29 11 39 2 10 13 63 25 118 12 55
23 109 24 120 2 11 6 29 9 40 8 27 20 86 21 108 0 9 3 17 6 17 3 0 6 8 6 18 1
16 6 42 20 106 3 16 19 56 35 89 25 54 28 70 25 141 -3 88 -15 121 -60 179
-73 92 -233 128 -350 78 -108 -47 -164 -136 -170 -274 -3 -45 -14 -125 -25
-177 -12 -52 -24 -108 -27 -125 -3 -16 -12 -59 -20 -95 -15 -66 -21 -96 -29
-137 -5 -22 -9 -41 -19 -88 -3 -11 -14 -65 -26 -120 -22 -104 -24 -114 -34
-155 -3 -14 -8 -36 -10 -50 -3 -14 -7 -34 -10 -45 -24 -103 -99 -464 -100
-477 0 -10 -3 -18 -6 -18 -3 0 -6 -8 -6 -17 -1 -10 -4 -30 -8 -45 -3 -16 -9
-40 -12 -55 -6 -30 -33 -157 -40 -188 -2 -11 -7 -36 -10 -55 -3 -19 -8 -38
-10 -41 -2 -3 -6 -21 -9 -40 -3 -19 -11 -54 -16 -79 -6 -25 -12 -52 -14 -60
-2 -8 -15 -71 -30 -140 -28 -131 -32 -150 -40 -190 -12 -64 -17 -80 -24 -80
-4 0 -7 8 -8 18 -2 28 -27 146 -60 282 -8 36 -17 76 -19 90 -2 14 -9 45 -14
70 -6 25 -12 54 -14 65 -3 11 -13 61 -25 110 -11 50 -23 106 -26 125 -3 19
-10 51 -15 70 -5 19 -16 67 -24 105 -8 39 -24 111 -35 160 -11 50 -23 105 -26
124 -3 19 -8 38 -10 42 -3 4 -7 22 -10 40 -5 35 -6 42 -25 124 -6 28 -14 59
-16 70 -5 24 -4 19 -44 205 -17 80 -33 153 -36 163 -2 9 -6 27 -9 40 -4 12 -8
36 -10 54 -3 17 -14 71 -26 120 -12 48 -23 99 -26 113 -2 14 -9 45 -14 70 -23
100 -32 149 -31 168 4 51 3 107 -3 134 -21 92 -106 179 -200 203 -28 7 -113
14 -118 9z"/>
</g>
</svg>
